<svg width="55" height="19" viewBox="0 0 55 19" fill="none" xmlns="http://www.w3.org/2000/svg">
<path d="M5.39489 18L0.46875 0.545454H3.86932L7.0142 13.3722H7.17614L10.5341 0.545454H13.6278L16.9943 13.3807H17.1477L20.2926 0.545454H23.6932L18.767 18H15.6477L12.1534 5.75284H12.017L8.5142 18H5.39489ZM39.8885 6.43466H36.701C36.6101 5.91193 36.4425 5.44886 36.1982 5.04545C35.9538 4.63636 35.6499 4.28977 35.2862 4.00568C34.9226 3.72159 34.5078 3.50852 34.0419 3.36648C33.5817 3.21875 33.0845 3.14489 32.5504 3.14489C31.6016 3.14489 30.7607 3.38352 30.0277 3.86079C29.2947 4.33239 28.7209 5.02557 28.3061 5.94034C27.8913 6.84943 27.6839 7.96023 27.6839 9.27273C27.6839 10.608 27.8913 11.733 28.3061 12.6477C28.7266 13.5568 29.3004 14.2443 30.0277 14.7102C30.7607 15.1705 31.5987 15.4006 32.5419 15.4006C33.0646 15.4006 33.5533 15.3324 34.0078 15.196C34.468 15.054 34.88 14.8466 35.2436 14.5739C35.6129 14.3011 35.9226 13.9659 36.1726 13.5682C36.4283 13.1705 36.6044 12.7159 36.701 12.2045L39.8885 12.2216C39.7692 13.0511 39.5107 13.8295 39.1129 14.5568C38.7209 15.2841 38.2067 15.9261 37.5703 16.483C36.9339 17.0341 36.1896 17.4659 35.3374 17.7784C34.4851 18.0852 33.5391 18.2386 32.4993 18.2386C30.9652 18.2386 29.5959 17.8835 28.3913 17.1733C27.1868 16.4631 26.2379 15.4375 25.5447 14.0966C24.8516 12.7557 24.505 11.1477 24.505 9.27273C24.505 7.39205 24.8544 5.78409 25.5533 4.44886C26.2521 3.10795 27.2038 2.08239 28.4084 1.37216C29.6129 0.661931 30.9766 0.306818 32.4993 0.306818C33.4709 0.306818 34.3743 0.443181 35.2095 0.715908C36.0447 0.988636 36.7891 1.3892 37.4425 1.91761C38.0959 2.44034 38.6328 3.08239 39.0533 3.84375C39.4794 4.59943 39.7578 5.46307 39.8885 6.43466ZM42.7841 18V0.545454H54.1364V3.19602H45.946V7.93466H53.5483V10.5852H45.946V15.3494H54.2045V18H42.7841Z" fill="#035AFC"/>
</svg>
